<svg xmlns="http://www.w3.org/2000/svg" viewBox="0 0 3200 900" preserveAspectRatio="xMidYMid slice">
    <defs>
        <pattern id="minus" x="0" y="0" width="20" height="20" patternUnits="userSpaceOnUse">
             <rect x="11" y="13" width="6" height="2" fill="#444444"></rect>
        </pattern>
        <pattern id="plus" x="0" y="0" width="20" height="20" patternUnits="userSpaceOnUse">
            <rect x="11" y="13" width="6" height="2" fill="#ffffff"></rect>
            <rect x="13" y="11" width="2" height="6" fill="#ffffff"></rect>
        </pattern>
    </defs>
                
    <mask id="fade">
        <rect x="0" y="0" width="3200" height="900" fill="black">
            <animate attributeName="fill" values="black; black; white; white; black" keyTimes="0; 0.5; 0.501; 0.99; 1" dur="6s" repeatCount="0"></animate>
            <set attributeName="fill" to="white" begin="5.9s"></set>
        </rect>

        <circle cx="1600" cy="500" r="0" fill="white">
            <animate attributeName="r" values="0; 2500; 0; 0" keyTimes="0; 0.5; 0.501; 1" dur="6s" repeatCount="0"></animate>
            <set attributeName="r" to="2500" begin="5.9s"></set>
        </circle>
    </mask>

    <rect x="0" y="0" width="3200" height="900" fill="url(#minus)"></rect>
                
    <path d="M 1460 120 l 80 0 l 0 180 l 77 -77 l 78 0 l -109 109 l 108 108 l -78 -1 l -69 -69 l -7 7 l 0 62 l -80 0 Z" fill="url(#plus)" mask="url(#fade)"></path>
    <path d="M 1520 440 l 80 0 l 0 180 l 77 -77 l 78 0 l -109 109 l 108 108 l -78 -1 l -69 -69 l -7 7 l 0 62 l -80 0 Z" fill="url(#plus)" mask="url(#fade)"></path>
</svg>